<?xml version="1.0" encoding="utf-8"?>
<!-- Generator: Adobe Illustrator 26.5.0, SVG Export Plug-In . SVG Version: 6.00 Build 0)  -->
<svg version="1.1" id="Layer_1" xmlns="http://www.w3.org/2000/svg" xmlns:xlink="http://www.w3.org/1999/xlink" x="0px" y="0px"
	 viewBox="0 0 500 500" style="enable-background:new 0 0 500 500;" xml:space="preserve">
<!-- <style type="text/css">
	.st0{fill:#FFFFFF;}
</style> -->
<g>
	<path class="st0" d="M414.7,1L85,0C56.5,0,33.4,23.1,33.3,51.6v340.1c0,28.4,23.2,50,51.7,50h281.6l-13.5-45.8L466.7,500V52.6
		C466.4,24.1,443.2,1.1,414.7,1z M321.5,326.9c0,0-9.1-10.8-16.7-20.1c33.1-9.3,45.7-29.7,45.7-29.7c-9.1,6-18.8,11-29,14.8
		c-11.8,4.9-24,8.5-36.6,10.8c-21.6,4-43.8,3.9-65.3-0.2c-12.7-2.4-25.1-6-37.1-10.8c-6.3-2.4-12.5-5.3-18.4-8.6
		c-0.8-0.5-1.5-0.8-2.3-1.3c-0.5-0.2-0.8-0.5-1-0.5c-4.5-2.5-7.1-4.3-7.1-4.3s12.1,19.9,44.1,29.4c-7.6,9.6-16.9,20.6-16.9,20.6
		c-55.7-1.8-76.9-38-76.9-38c0-80.3,36.3-145.4,36.3-145.4c36.3-26.9,70.6-26.2,70.6-26.2l2.5,3c-45.4,12.8-66.1,32.7-66.1,32.7
		s5.5-3,14.9-7.1c27-11.8,48.4-14.8,57.3-15.8c1.4-0.3,2.8-0.5,4.3-0.5c16.9-2.2,34-2.4,50.9-0.5c26.6,3.1,52.4,11.2,75.9,23.9
		c0,0-19.9-18.9-62.8-31.7l3.5-4c0,0,34.6-0.8,70.6,26.2c0,0,36.3,65.2,36.3,145.4C398.4,288.9,377.2,325.1,321.5,326.9z"/>
	<path class="st0" d="M204.2,210.4c-14.4,0-25.7,12.3-25.7,27.7s11.6,27.7,25.7,27.7c14.4,0,25.7-12.3,25.7-27.7
		C230.2,222.7,218.6,210.4,204.2,210.4z"/>
	<ellipse class="st0" cx="296.3" cy="238.1" rx="25.7" ry="27.7"/>
</g>
</svg>
