<?xml version="1.0" encoding="utf-8"?>
<!-- Generator: Adobe Illustrator 26.5.0, SVG Export Plug-In . SVG Version: 6.00 Build 0)  -->
<svg version="1.1" id="Layer_1" xmlns="http://www.w3.org/2000/svg" xmlns:xlink="http://www.w3.org/1999/xlink" x="0px" y="0px"
	 viewBox="0 0 500 500" style="enable-background:new 0 0 500 500;" xml:space="preserve">
<style type="text/css">
	.st0{fill:#FFFFFF;}
</style>
<g>
	<path class="st0" d="M393.6,141.2c-3.5-8.5-7.3-14.6-13.8-21.1c-6.5-6.5-12.7-10.4-21.1-13.8c-6.5-2.7-16.1-5.4-34.2-6.5
		c-19.6-0.8-25.4-1.2-74.5-1.2c-6.1,0-11.5,0-16.5,0l0,0c-34.2,0-41.1,0.4-58,1.2c-18.1,0.8-27.7,3.8-34.2,6.5
		c-8.5,3.5-14.6,7.3-21.1,13.8c-6.5,6.5-10.4,12.7-13.8,21.1c-2.7,6.5-5.4,16.1-6.5,34.2c-0.8,19.6-1.2,25.4-1.2,74.5
		s0,54.9,1.2,74.5c0.8,18.1,3.8,27.7,6.5,34.2c3.5,8.5,7.3,14.6,13.8,21.1c6.5,6.5,12.7,10.4,21.1,13.8c6.5,2.7,16.1,5.4,34.2,6.5
		c19.6,0.8,25.4,1.2,74.5,1.2s54.9,0,74.5-1.2c18.1-0.8,27.7-3.8,34.2-6.5c8.5-3.5,14.6-7.3,21.1-13.8c6.5-6.5,10.4-12.7,13.8-21.1
		c2.7-6.5,5.4-16.1,6.5-34.2c0.8-19.6,1.2-25.4,1.2-74.5s-0.4-54.9-1.2-74.5C399.3,157.3,396.3,147.7,393.6,141.2z M249.9,344.5
		c-52.3,0-94.9-42.3-94.9-94.5s42.3-94.5,94.5-94.9l0,0l0,0l0,0c52.3,0,94.5,42.3,94.5,94.9C344.4,302.2,302.1,344.5,249.9,344.5z
		 M348.2,173.5c-12.3,0-22.3-10-22.3-22.3c0-12.3,10-22.3,22.3-22.3l0,0c12.3,0,22.3,10,22.3,22.3
		C370.5,163.5,360.5,173.5,348.2,173.5z"/>
	<circle class="st0" cx="249.9" cy="250" r="61.5"/>
	<path class="st0" d="M499.2,108.5c-1.5-20-5-33.4-11.9-47.6c-5.8-11.5-12.3-20.4-21.5-29.2c-16.5-15.8-36.9-25.4-60.7-28.8
		c-11.5-1.5-13.8-2.3-73.8-2.3h-81.5C145.7,0.2,115,0.2,109.2,1C87.7,2.9,74.6,6,60,13.3c-11.1,5.4-20,11.9-28.8,21.1
		C15.5,50.5,5.9,70.9,2.4,95.1c-1.5,11.5-2.3,13.8-2.3,73.4c0,20,0,46.1,0,81.5c0,104.1,0,134.5,0.8,140.6
		c1.9,20.7,5,33.8,11.9,48.4c13.1,27.3,38.4,48,68.4,55.7c10.4,2.7,21.5,4.2,36.1,4.6c6.1,0.4,69.2,0.4,132.2,0.4s126,0,132.2-0.4
		c16.9-0.8,26.9-1.9,37.7-5c30-7.7,54.6-28,68.4-55.7c6.9-13.8,10.4-27.7,11.9-47.3c0.4-4.2,0.4-73,0.4-141.4
		C499.6,181.2,499.6,112.8,499.2,108.5z M433.1,326c-0.8,19.6-3.8,33-8.5,44.6c-4.6,12.3-11.1,22.3-21.1,32.7
		c-10.4,10.4-20.4,16.5-32.7,21.1c-11.9,4.6-25,7.7-45,8.5c-19.6,1.2-26.1,1.5-76.1,1.5s-56.5-0.4-76.1-1.2s-33-3.8-45-8.5
		c-12.3-4.6-22.3-11.1-32.7-21.1C85.8,393.3,79.6,383.3,75,371c-4.6-11.9-7.7-25-8.5-45c-0.8-19.6-1.2-26.1-1.2-76.1
		s0.4-56.5,1.2-76.1s3.8-33,8.5-44.6C79.6,117,86.2,107,96.2,96.6c10.4-10.4,20.4-16.5,32.7-21.1c11.9-4.6,25-7.7,44.6-8.5
		c20-1.2,26.5-1.5,76.5-1.5l0,0l0,0l0,0c50,0,56.5,0.4,76.1,1.2c19.6,0.8,33,3.8,45,8.5c12.3,4.6,22.3,11.1,32.7,21.1
		c10.4,10.4,16.5,20.4,21.1,32.7c4.6,11.9,7.7,25,8.5,45c0.8,19.6,1.2,26.1,1.2,76.1S433.9,306.4,433.1,326z"/>
</g>
</svg>
