<svg width="55" height="55" viewBox="0 0 55 55" fill="none" xmlns="http://www.w3.org/2000/svg">
<path fill-rule="evenodd" clip-rule="evenodd" d="M54.5833 54.5827H43.4537V35.6266C43.4537 30.4293 41.4789 27.5249 37.3653 27.5249C32.8902 27.5249 30.5521 30.5474 30.5521 35.6266V54.5827H19.8263V18.4716H30.5521V23.3357C30.5521 23.3357 33.7771 17.3683 41.4401 17.3683C49.0996 17.3683 54.5833 22.0457 54.5833 31.7194V54.5827ZM7.03053 13.7431C3.3771 13.7431 0.416626 10.7594 0.416626 7.07957C0.416626 3.39972 3.3771 0.416016 7.03053 0.416016C10.684 0.416016 13.6427 3.39972 13.6427 7.07957C13.6427 10.7594 10.684 13.7431 7.03053 13.7431ZM1.4922 54.5827H12.6764V18.4716H1.4922V54.5827Z" fill="white"/>
</svg>
