<?xml version="1.0" encoding="utf-8"?>
<!-- Generator: Adobe Illustrator 26.5.0, SVG Export Plug-In . SVG Version: 6.00 Build 0)  -->
<svg version="1.1" id="Layer_1" xmlns="http://www.w3.org/2000/svg" xmlns:xlink="http://www.w3.org/1999/xlink" x="0px" y="0px"
	 viewBox="0 0 500 500" style="enable-background:new 0 0 500 500;" xml:space="preserve">
<style type="text/css">
	.st0{fill:#FFFFFF;}
</style>
<path class="st0" d="M500.6,104.4c-18.5,8.2-38.3,13.7-59.1,16.2c21.2-12.7,37.6-32.9,45.2-56.9c-19.8,11.8-41.9,20.3-65.3,24.9
	c-18.8-20-45.5-32.5-75-32.5c-56.8,0-102.9,46-102.9,102.8c0,8,0.9,15.9,2.7,23.4C160.8,178.1,85,137.2,34.3,75
	c-8.9,15.2-13.9,32.9-13.9,51.7c0,35.7,18.1,67.1,45.7,85.6c-16.9-0.5-32.7-5.2-46.6-12.9c0,0.4,0,0.9,0,1.3
	c0,49.8,35.5,91.4,82.5,100.9c-8.6,2.3-17.7,3.6-27.1,3.6c-6.6,0-13.1-0.6-19.4-1.9c13.1,40.8,51.1,70.6,96.1,71.4
	c-35.2,27.6-79.5,44-127.7,44c-8.3,0-16.5-0.5-24.5-1.4c45.5,29.2,99.5,46.2,157.6,46.2c189.1,0,292.6-156.7,292.6-292.5
	c0-4.5-0.1-8.9-0.3-13.3C469.4,143.1,486.8,125,500.6,104.4z"/>
</svg>
