<?xml version="1.0" encoding="utf-8"?>
<!-- Generator: Adobe Illustrator 26.5.0, SVG Export Plug-In . SVG Version: 6.00 Build 0)  -->
<svg version="1.1" id="Layer_1" xmlns="http://www.w3.org/2000/svg" xmlns:xlink="http://www.w3.org/1999/xlink" x="0px" y="0px"
	 viewBox="0 0 500 500" style="enable-background:new 0 0 500 500;" xml:space="preserve">
<style type="text/css">
	.st0{fill:#FFFFFF;}
</style>
<g>
	<g>
		<path class="st0" d="M488.8,126.6c-5-26.2-26.2-46.1-52.4-49.9C394,70.4,326.7,63,249.4,63s-145.9,7.5-187,13.7
			C36.2,80.4,15,100.4,10,126.6C5,155.2,0,197.6,0,250s5,94.8,10,123.4c5,26.2,26.2,46.1,52.4,49.9c42.4,6.2,111,13.7,187,13.7
			c77.3,0,145.9-7.5,187-13.7c26.2-3.7,47.4-23.7,52.4-49.9c5-28.7,10-71.1,11.2-123.4C500,197.6,493.8,155.2,488.8,126.6z
			 M199.5,337.3V162.7L349.1,250L199.5,337.3z"/>
	</g>
</g>
</svg>
