{
  "accessors": [
    {
      "bufferView": 2,
      "componentType": 5126,
      "count": 4503,
      "max": [
        0.9999992251396179,
        1.0,
        0.9999984502792358
      ],
      "min": [
        -0.999997615814209,
        -1.0,
        -1.0
      ],
      "type": "VEC3"
    },
    {
      "bufferView": 2,
      "byteOffset": 54036,
      "componentType": 5126,
      "count": 4503,
      "max": [
        1.0,
        1.0,
        1.0
      ],
      "min": [
        -1.0,
        -1.0,
        -1.0
      ],
      "type": "VEC3"
    },
    {
      "bufferView": 1,
      "componentType": 5126,
      "count": 4503,
      "max": [
        1.000000238418579,
        1.0
      ],
      "min": [
        0.0,
        0.0
      ],
      "type": "VEC2"
    },
    {
      "bufferView": 0,
      "componentType": 5125,
      "count": 25704,
      "type": "SCALAR"
    },
    {
      "bufferView": 2,
      "byteOffset": 108072,
      "componentType": 5126,
      "count": 4503,
      "max": [
        0.9999992251396179,
        1.0,
        0.9999984502792358
      ],
      "min": [
        -0.999997615814209,
        -1.0,
        -1.0
      ],
      "type": "VEC3"
    },
    {
      "bufferView": 2,
      "byteOffset": 162108,
      "componentType": 5126,
      "count": 4503,
      "max": [
        1.0,
        1.0,
        1.0
      ],
      "min": [
        -1.0,
        -1.0,
        -1.0
      ],
      "type": "VEC3"
    },
    {
      "bufferView": 1,
      "byteOffset": 36024,
      "componentType": 5126,
      "count": 4503,
      "max": [
        1.000000238418579,
        1.0
      ],
      "min": [
        0.0,
        0.0
      ],
      "type": "VEC2"
    },
    {
      "bufferView": 0,
      "byteOffset": 102816,
      "componentType": 5125,
      "count": 25704,
      "type": "SCALAR"
    },
    {
      "bufferView": 2,
      "byteOffset": 216144,
      "componentType": 5126,
      "count": 4503,
      "max": [
        0.9999992251396179,
        1.0,
        0.9999984502792358
      ],
      "min": [
        -0.999997615814209,
        -1.0,
        -1.0
      ],
      "type": "VEC3"
    },
    {
      "bufferView": 2,
      "byteOffset": 270180,
      "componentType": 5126,
      "count": 4503,
      "max": [
        1.0,
        1.0,
        1.0
      ],
      "min": [
        -1.0,
        -1.0,
        -1.0
      ],
      "type": "VEC3"
    },
    {
      "bufferView": 1,
      "byteOffset": 72048,
      "componentType": 5126,
      "count": 4503,
      "max": [
        1.000000238418579,
        1.0
      ],
      "min": [
        0.0,
        0.0
      ],
      "type": "VEC2"
    },
    {
      "bufferView": 0,
      "byteOffset": 205632,
      "componentType": 5125,
      "count": 25704,
      "type": "SCALAR"
    },
    {
      "bufferView": 2,
      "byteOffset": 324216,
      "componentType": 5126,
      "count": 4503,
      "max": [
        0.9999992251396179,
        1.0,
        0.9999984502792358
      ],
      "min": [
        -0.999997615814209,
        -1.0,
        -1.0
      ],
      "type": "VEC3"
    },
    {
      "bufferView": 2,
      "byteOffset": 378252,
      "componentType": 5126,
      "count": 4503,
      "max": [
        1.0,
        1.0,
        1.0
      ],
      "min": [
        -1.0,
        -1.0,
        -1.0
      ],
      "type": "VEC3"
    },
    {
      "bufferView": 1,
      "byteOffset": 108072,
      "componentType": 5126,
      "count": 4503,
      "max": [
        1.000000238418579,
        1.0
      ],
      "min": [
        0.0,
        0.0
      ],
      "type": "VEC2"
    },
    {
      "bufferView": 0,
      "byteOffset": 308448,
      "componentType": 5125,
      "count": 25704,
      "type": "SCALAR"
    },
    {
      "bufferView": 2,
      "byteOffset": 432288,
      "componentType": 5126,
      "count": 4503,
      "max": [
        0.9999992251396179,
        1.0,
        0.9999984502792358
      ],
      "min": [
        -0.999997615814209,
        -1.0,
        -1.0
      ],
      "type": "VEC3"
    },
    {
      "bufferView": 2,
      "byteOffset": 486324,
      "componentType": 5126,
      "count": 4503,
      "max": [
        1.0,
        1.0,
        1.0
      ],
      "min": [
        -1.0,
        -1.0,
        -1.0
      ],
      "type": "VEC3"
    },
    {
      "bufferView": 1,
      "byteOffset": 144096,
      "componentType": 5126,
      "count": 4503,
      "max": [
        1.000000238418579,
        1.0
      ],
      "min": [
        0.0,
        0.0
      ],
      "type": "VEC2"
    },
    {
      "bufferView": 0,
      "byteOffset": 411264,
      "componentType": 5125,
      "count": 25704,
      "type": "SCALAR"
    },
    {
      "bufferView": 2,
      "byteOffset": 540360,
      "componentType": 5126,
      "count": 4503,
      "max": [
        0.9999992251396179,
        1.0,
        0.9999984502792358
      ],
      "min": [
        -0.999997615814209,
        -1.0,
        -1.0
      ],
      "type": "VEC3"
    },
    {
      "bufferView": 2,
      "byteOffset": 594396,
      "componentType": 5126,
      "count": 4503,
      "max": [
        1.0,
        1.0,
        1.0
      ],
      "min": [
        -1.0,
        -1.0,
        -1.0
      ],
      "type": "VEC3"
    },
    {
      "bufferView": 1,
      "byteOffset": 180120,
      "componentType": 5126,
      "count": 4503,
      "max": [
        1.000000238418579,
        1.0
      ],
      "min": [
        0.0,
        0.0
      ],
      "type": "VEC2"
    },
    {
      "bufferView": 0,
      "byteOffset": 514080,
      "componentType": 5125,
      "count": 25704,
      "type": "SCALAR"
    },
    {
      "bufferView": 2,
      "byteOffset": 648432,
      "componentType": 5126,
      "count": 12538,
      "max": [
        0.9999282360076904,
        1.0,
        0.9997126460075378
      ],
      "min": [
        -0.9999282360076904,
        -1.0,
        -1.0000001192092896
      ],
      "type": "VEC3"
    },
    {
      "bufferView": 2,
      "byteOffset": 798888,
      "componentType": 5126,
      "count": 12538,
      "max": [
        0.9999281167984009,
        1.0,
        1.0
      ],
      "min": [
        -0.9999281764030457,
        -1.0,
        -0.9997124671936035
      ],
      "type": "VEC3"
    },
    {
      "bufferView": 1,
      "byteOffset": 216144,
      "componentType": 5126,
      "count": 12538,
      "max": [
        1.0000004768371582,
        1.0
      ],
      "min": [
        0.0,
        0.0
      ],
      "type": "VEC2"
    },
    {
      "bufferView": 0,
      "byteOffset": 616896,
      "componentType": 5125,
      "count": 73098,
      "type": "SCALAR"
    },
    {
      "bufferView": 3,
      "componentType": 5126,
      "count": 250,
      "max": [
        10.416666984558105
      ],
      "min": [
        0.0416666679084301
      ],
      "type": "SCALAR"
    },
    {
      "bufferView": 5,
      "componentType": 5126,
      "count": 250,
      "max": [
        0.9238691926002502,
        0.3826715350151062,
        -0.001810586079955101,
        0.9238783717155457
      ],
      "min": [
        -0.9238508343696594,
        -0.38267913460731506,
        -0.3826829493045807,
        0.004371158313006163
      ],
      "type": "VEC4"
    },
    {
      "bufferView": 3,
      "byteOffset": 1000,
      "componentType": 5126,
      "count": 40,
      "max": [
        10.416666984558105
      ],
      "min": [
        0.0416666679084301
      ],
      "type": "SCALAR"
    },
    {
      "bufferView": 4,
      "componentType": 5126,
      "count": 40,
      "max": [
        1.0,
        1.0000001192092896,
        1.0000001192092896
      ],
      "min": [
        1.0,
        0.9999999403953552,
        1.0
      ],
      "type": "VEC3"
    },
    {
      "bufferView": 3,
      "byteOffset": 1160,
      "componentType": 5126,
      "count": 250,
      "max": [
        10.416666984558105
      ],
      "min": [
        0.0416666679084301
      ],
      "type": "SCALAR"
    },
    {
      "bufferView": 5,
      "byteOffset": 4000,
      "componentType": 5126,
      "count": 250,
      "max": [
        0.3826829791069031,
        0.269314706325531,
        0.9238507747650146,
        0.9238784313201904
      ],
      "min": [
        -0.2684558629989624,
        -0.3826792538166046,
        -0.923869252204895,
        0.004371166229248047
      ],
      "type": "VEC4"
    },
    {
      "bufferView": 3,
      "byteOffset": 2160,
      "componentType": 5126,
      "count": 126,
      "max": [
        10.416666984558105
      ],
      "min": [
        0.0416666679084301
      ],
      "type": "SCALAR"
    },
    {
      "bufferView": 4,
      "byteOffset": 480,
      "componentType": 5126,
      "count": 126,
      "max": [
        0.8965582847595215,
        0.8965583443641663,
        0.8965582847595215
      ],
      "min": [
        0.8965581655502319,
        0.8965581655502319,
        0.8965582847595215
      ],
      "type": "VEC3"
    },
    {
      "bufferView": 3,
      "byteOffset": 2664,
      "componentType": 5126,
      "count": 250,
      "max": [
        10.416666984558105
      ],
      "min": [
        0.0416666679084301
      ],
      "type": "SCALAR"
    },
    {
      "bufferView": 5,
      "byteOffset": 8000,
      "componentType": 5126,
      "count": 250,
      "max": [
        0.4999975264072418,
        0.8659608960151672,
        0.4046938419342041,
        0.8660103678703308
      ],
      "min": [
        -0.2885081470012665,
        -0.8660253882408142,
        -0.4999975264072418,
        0.00035411588032729924
      ],
      "type": "VEC4"
    },
    {
      "bufferView": 3,
      "byteOffset": 3664,
      "componentType": 5126,
      "count": 157,
      "max": [
        10.416666984558105
      ],
      "min": [
        0.0416666679084301
      ],
      "type": "SCALAR"
    },
    {
      "bufferView": 4,
      "byteOffset": 1992,
      "componentType": 5126,
      "count": 157,
      "max": [
        0.7974982857704163,
        0.7974981665611267,
        0.7974982857704163
      ],
      "min": [
        0.7974981069564819,
        0.7974981665611267,
        0.7974981069564819
      ],
      "type": "VEC3"
    },
    {
      "bufferView": 3,
      "byteOffset": 4292,
      "componentType": 5126,
      "count": 250,
      "max": [
        10.416666984558105
      ],
      "min": [
        0.0416666679084301
      ],
      "type": "SCALAR"
    },
    {
      "bufferView": 5,
      "byteOffset": 12000,
      "componentType": 5126,
      "count": 250,
      "max": [
        0.6123685240745544,
        0.8535252809524536,
        0.707043468952179,
        0.9658960103988647
      ],
      "min": [
        -0.612347424030304,
        -0.8332368731498718,
        -0.7070997357368469,
        0.00040901717147789896
      ],
      "type": "VEC4"
    },
    {
      "bufferView": 3,
      "byteOffset": 5292,
      "componentType": 5126,
      "count": 141,
      "max": [
        10.416666984558105
      ],
      "min": [
        0.0416666679084301
      ],
      "type": "SCALAR"
    },
    {
      "bufferView": 4,
      "byteOffset": 3876,
      "componentType": 5126,
      "count": 141,
      "max": [
        0.6964139938354492,
        0.6964139938354492,
        0.6964139938354492
      ],
      "min": [
        0.6964137554168701,
        0.6964138150215149,
        0.6964138150215149
      ],
      "type": "VEC3"
    },
    {
      "bufferView": 3,
      "byteOffset": 5856,
      "componentType": 5126,
      "count": 250,
      "max": [
        10.416666984558105
      ],
      "min": [
        0.0416666679084301
      ],
      "type": "SCALAR"
    },
    {
      "bufferView": 5,
      "byteOffset": 16000,
      "componentType": 5126,
      "count": 250,
      "max": [
        0.9238691926002502,
        0.38267165422439575,
        -0.0018106206553056836,
        0.9238783717155457
      ],
      "min": [
        -0.9238507747650146,
        -0.38267913460731506,
        -0.3826829493045807,
        0.004371240735054016
      ],
      "type": "VEC4"
    },
    {
      "bufferView": 3,
      "byteOffset": 6856,
      "componentType": 5126,
      "count": 156,
      "max": [
        10.416666984558105
      ],
      "min": [
        0.0416666679084301
      ],
      "type": "SCALAR"
    },
    {
      "bufferView": 4,
      "byteOffset": 5568,
      "componentType": 5126,
      "count": 156,
      "max": [
        0.6027601957321167,
        0.6027603149414063,
        0.6027603149414063
      ],
      "min": [
        0.6027601957321167,
        0.6027601361274719,
        0.6027601361274719
      ],
      "type": "VEC3"
    },
    {
      "bufferView": 3,
      "byteOffset": 7480,
      "componentType": 5126,
      "count": 250,
      "max": [
        10.416666984558105
      ],
      "min": [
        0.0416666679084301
      ],
      "type": "SCALAR"
    },
    {
      "bufferView": 5,
      "byteOffset": 20000,
      "componentType": 5126,
      "count": 250,
      "max": [
        0.3826829791069031,
        0.2693146765232086,
        0.9238508343696594,
        0.9238784313201904
      ],
      "min": [
        -0.26845583319664,
        -0.3826791048049927,
        -0.923869252204895,
        0.004371238872408867
      ],
      "type": "VEC4"
    }
  ],
  "animations": [
    {
      "channels": [
        {
          "sampler": 0,
          "target": {
            "node": 3,
            "path": "rotation"
          }
        },
        {
          "sampler": 1,
          "target": {
            "node": 3,
            "path": "scale"
          }
        },
        {
          "sampler": 2,
          "target": {
            "node": 5,
            "path": "rotation"
          }
        },
        {
          "sampler": 3,
          "target": {
            "node": 5,
            "path": "scale"
          }
        },
        {
          "sampler": 4,
          "target": {
            "node": 7,
            "path": "rotation"
          }
        },
        {
          "sampler": 5,
          "target": {
            "node": 7,
            "path": "scale"
          }
        },
        {
          "sampler": 6,
          "target": {
            "node": 9,
            "path": "rotation"
          }
        },
        {
          "sampler": 7,
          "target": {
            "node": 9,
            "path": "scale"
          }
        },
        {
          "sampler": 8,
          "target": {
            "node": 11,
            "path": "rotation"
          }
        },
        {
          "sampler": 9,
          "target": {
            "node": 11,
            "path": "scale"
          }
        },
        {
          "sampler": 10,
          "target": {
            "node": 13,
            "path": "rotation"
          }
        }
      ],
      "name": "Animation",
      "samplers": [
        {
          "input": 28,
          "interpolation": "LINEAR",
          "output": 29
        },
        {
          "input": 30,
          "interpolation": "LINEAR",
          "output": 31
        },
        {
          "input": 32,
          "interpolation": "LINEAR",
          "output": 33
        },
        {
          "input": 34,
          "interpolation": "LINEAR",
          "output": 35
        },
        {
          "input": 36,
          "interpolation": "LINEAR",
          "output": 37
        },
        {
          "input": 38,
          "interpolation": "LINEAR",
          "output": 39
        },
        {
          "input": 40,
          "interpolation": "LINEAR",
          "output": 41
        },
        {
          "input": 42,
          "interpolation": "LINEAR",
          "output": 43
        },
        {
          "input": 44,
          "interpolation": "LINEAR",
          "output": 45
        },
        {
          "input": 46,
          "interpolation": "LINEAR",
          "output": 47
        },
        {
          "input": 48,
          "interpolation": "LINEAR",
          "output": 49
        }
      ]
    }
  ],
  "asset": {
    "extras": {
      "author": "Tycho Magnetic Anomaly (https://sketchfab.com/Tycho_Magnetic_Anomaly)",
      "license": "CC-BY-4.0 (http://creativecommons.org/licenses/by/4.0/)",
      "source": "https://sketchfab.com/3d-models/placid-iridescence-use-j-k-keys-cd6ac4264b6241fc834fc97bd7244541",
      "title": "Placid Iridescence (Use J + K Keys)"
    },
    "generator": "Sketchfab-15.55.0",
    "version": "2.0"
  },
  "bufferViews": [
    {
      "buffer": 0,
      "byteLength": 909288,
      "name": "floatBufferViews",
      "target": 34963
    },
    {
      "buffer": 0,
      "byteLength": 316448,
      "byteOffset": 909288,
      "byteStride": 8,
      "name": "floatBufferViews",
      "target": 34962
    },
    {
      "buffer": 0,
      "byteLength": 949344,
      "byteOffset": 1225736,
      "byteStride": 12,
      "name": "floatBufferViews",
      "target": 34962
    },
    {
      "buffer": 0,
      "byteLength": 8480,
      "byteOffset": 2175080,
      "name": "floatBufferViews"
    },
    {
      "buffer": 0,
      "byteLength": 7440,
      "byteOffset": 2183560,
      "byteStride": 12,
      "name": "floatBufferViews"
    },
    {
      "buffer": 0,
      "byteLength": 24000,
      "byteOffset": 2191000,
      "byteStride": 16,
      "name": "floatBufferViews"
    }
  ],
  "buffers": [
    {
      "byteLength": 2215000,
      "uri": "scene.bin"
    }
  ],
  "extensionsUsed": [
    "KHR_materials_emissive_strength",
    "KHR_texture_transform",
    "KHR_materials_specular",
    "KHR_materials_transmission"
  ],
  "images": [
    {
      "uri": "textures/Material.001_emissive.png"
    }
  ],
  "materials": [
    {
      "emissiveFactor": [
        1.0,
        1.0,
        1.0
      ],
      "emissiveTexture": {
        "extensions": {
          "KHR_texture_transform": {
            "rotation": 2.6927937030769655,
            "scale": [
              10.449175630876038,
              1.562597856143749
            ]
          }
        },
        "index": 0
      },
      "extensions": {
        "KHR_materials_emissive_strength": {
          "emissiveStrength": 1.2435696430482883
        },
        "KHR_materials_specular": {
          "specularColorFactor": [
            1.0,
            1.0,
            1.0
          ],
          "specularFactor": 0.0
        }
      },
      "name": "Material.001",
      "pbrMetallicRoughness": {
        "baseColorFactor": [
          0.0,
          0.0,
          0.0,
          1.0
        ],
        "metallicFactor": 0.0,
        "roughnessFactor": 0.0
      }
    },
    {
      "alphaMode": "BLEND",
      "doubleSided": true,
      "extensions": {
        "KHR_materials_specular": {
          "specularColorFactor": [
            1.0,
            1.0,
            1.0
          ],
          "specularFactor": 0.0
        },
        "KHR_materials_transmission": {
          "transmissionFactor": 1.0
        }
      },
      "name": "Material.002",
      "pbrMetallicRoughness": {
        "baseColorFactor": [
          0.0,
          0.0,
          0.0,
          0.25
        ],
        "metallicFactor": 0.0,
        "roughnessFactor": 0.0
      }
    }
  ],
  "meshes": [
    {
      "name": "Object_0",
      "primitives": [
        {
          "attributes": {
            "NORMAL": 1,
            "POSITION": 0,
            "TEXCOORD_0": 2
          },
          "indices": 3,
          "material": 0,
          "mode": 4
        }
      ]
    },
    {
      "name": "Object_1",
      "primitives": [
        {
          "attributes": {
            "NORMAL": 5,
            "POSITION": 4,
            "TEXCOORD_0": 6
          },
          "indices": 7,
          "material": 0,
          "mode": 4
        }
      ]
    },
    {
      "name": "Object_2",
      "primitives": [
        {
          "attributes": {
            "NORMAL": 9,
            "POSITION": 8,
            "TEXCOORD_0": 10
          },
          "indices": 11,
          "material": 0,
          "mode": 4
        }
      ]
    },
    {
      "name": "Object_3",
      "primitives": [
        {
          "attributes": {
            "NORMAL": 13,
            "POSITION": 12,
            "TEXCOORD_0": 14
          },
          "indices": 15,
          "material": 0,
          "mode": 4
        }
      ]
    },
    {
      "name": "Object_4",
      "primitives": [
        {
          "attributes": {
            "NORMAL": 17,
            "POSITION": 16,
            "TEXCOORD_0": 18
          },
          "indices": 19,
          "material": 0,
          "mode": 4
        }
      ]
    },
    {
      "name": "Object_5",
      "primitives": [
        {
          "attributes": {
            "NORMAL": 21,
            "POSITION": 20,
            "TEXCOORD_0": 22
          },
          "indices": 23,
          "material": 0,
          "mode": 4
        }
      ]
    },
    {
      "name": "Object_6",
      "primitives": [
        {
          "attributes": {
            "NORMAL": 25,
            "POSITION": 24,
            "TEXCOORD_0": 26
          },
          "indices": 27,
          "material": 1,
          "mode": 4
        }
      ]
    }
  ],
  "nodes": [
    {
      "children": [
        1
      ],
      "matrix": [
        1.0,
        0.0,
        0.0,
        0.0,
        0.0,
        2.220446049250313e-16,
        -1.0,
        0.0,
        0.0,
        1.0,
        2.220446049250313e-16,
        0.0,
        0.0,
        0.0,
        0.0,
        1.0
      ],
      "name": "Sketchfab_model"
    },
    {
      "children": [
        2
      ],
      "name": "root"
    },
    {
      "children": [
        3,
        5,
        7,
        9,
        11,
        13,
        15
      ],
      "matrix": [
        1.0,
        0.0,
        0.0,
        0.0,
        0.0,
        2.220446049250313e-16,
        1.0,
        0.0,
        0.0,
        -1.0,
        2.220446049250313e-16,
        0.0,
        0.0,
        0.0,
        0.0,
        1.0
      ],
      "name": "GLTF_SceneRootNode"
    },
    {
      "children": [
        4
      ],
      "name": "Sphere_0"
    },
    {
      "mesh": 0,
      "name": "Object_4"
    },
    {
      "children": [
        6
      ],
      "name": "Sphere.001_1",
      "scale": [
        0.8965582251548767,
        0.8965582251548767,
        0.8965582847595215
      ]
    },
    {
      "mesh": 1,
      "name": "Object_6"
    },
    {
      "children": [
        8
      ],
      "name": "Sphere.002_2",
      "scale": [
        0.7974981665611267,
        0.7974981665611267,
        0.7974981665611267
      ]
    },
    {
      "mesh": 2,
      "name": "Object_8"
    },
    {
      "children": [
        10
      ],
      "name": "Sphere.003_3",
      "scale": [
        0.6964138746261597,
        0.6964138746261597,
        0.6964138746261597
      ]
    },
    {
      "mesh": 3,
      "name": "Object_10"
    },
    {
      "children": [
        12
      ],
      "name": "Sphere.004_4",
      "scale": [
        0.6027601957321167,
        0.6027601957321167,
        0.6027601957321167
      ]
    },
    {
      "mesh": 4,
      "name": "Object_12"
    },
    {
      "children": [
        14
      ],
      "name": "Sphere.005_5",
      "scale": [
        0.49951499700546265,
        0.49951499700546265,
        0.49951496720314026
      ]
    },
    {
      "mesh": 5,
      "name": "Object_14"
    },
    {
      "children": [
        16
      ],
      "matrix": [
        1.3726352339441001,
        -1.3726351471657305,
        7.867590024197795e-10,
        0.0,
        0.9705996509432886,
        0.9705997130916231,
        1.3726351471657305,
        0.0,
        -0.9705995903684755,
        -0.9705996509432886,
        1.3726352339441001,
        0.0,
        0.0,
        0.0,
        0.0,
        1.0
      ],
      "name": "Circle_7"
    },
    {
      "children": [
        17
      ],
      "matrix": [
        0.5276161432266235,
        0.0,
        0.0,
        0.0,
        0.0,
        0.5276161432266235,
        0.0,
        0.0,
        0.0,
        0.0,
        0.5276160836219788,
        0.0,
        0.0,
        0.0,
        0.0,
        1.0
      ],
      "name": "Sphere.006_6"
    },
    {
      "mesh": 6,
      "name": "Object_17"
    }
  ],
  "samplers": [
    {
      "magFilter": 9729,
      "minFilter": 9987,
      "wrapS": 10497,
      "wrapT": 10497
    }
  ],
  "scene": 0,
  "scenes": [
    {
      "name": "Sketchfab_Scene",
      "nodes": [
        0
      ]
    }
  ],
  "textures": [
    {
      "sampler": 0,
      "source": 0
    }
  ]
}
